# xmcd
#
# Track frame offsets:
#	150
#	23700
#	44800
#	64000
#	77200
#	94000
#	106225
#	124825
#	143800
#	160000
#	175825
#	188125
#	208000
#	232450
#	245125
#
# Disc length: 3548 seconds
# Revision: 1
# Processed by: cddbd v1.5.2PL0 Copyright (c) Steve Scherf et al.
# Submitted via: dBpowerAMP V12.0
#
DISCID=d70dda0f
DTITLE=岡本知高 - ソプラニスタ Disc2
DYEAR=2003
DGENRE=Classical
TTITLE0=翼をください
TTITLE1=さくら
TTITLE2=少年時代
TTITLE3=夏の思い出
TTITLE4=椰子の実
TTITLE5=小さな木の実
TTITLE6=蘇州夜曲
TTITLE7=見上げてごらん夜の星を
TTITLE8=私の故郷
TTITLE9=叱られて
TTITLE10=浜辺の歌
TTITLE11=知床旅情
TTITLE12=川の流れのように
TTITLE13=ホワイト･クリスマス
TTITLE14=アメイジング･グレイス
EXTD=
EXTT0=
EXTT1=
EXTT2=
EXTT3=
EXTT4=
EXTT5=
EXTT6=
EXTT7=
EXTT8=
EXTT9=
EXTT10=
EXTT11=
EXTT12=
EXTT13=
EXTT14=
PLAYORDER=
